<svg id="visual" viewBox="0 0 1920 600" width="1920" height="600" xmlns="http://www.w3.org/2000/svg" xmlns:xlink="http://www.w3.org/1999/xlink" version="1.1"><rect x="0" y="0" width="1920" height="600" fill="#9c27b0"></rect><path d="M0 364L137 477L274 443L411 460L549 439L686 464L823 364L960 368L1097 394L1234 451L1371 475L1509 446L1646 395L1783 389L1920 459L1920 601L1783 601L1646 601L1509 601L1371 601L1234 601L1097 601L960 601L823 601L686 601L549 601L411 601L274 601L137 601L0 601Z" fill="#701c7e"></path><path d="M0 466L137 416L274 528L411 457L549 423L686 415L823 451L960 426L1097 525L1234 459L1371 488L1509 428L1646 498L1783 509L1920 414L1920 601L1783 601L1646 601L1509 601L1371 601L1234 601L1097 601L960 601L823 601L686 601L549 601L411 601L274 601L137 601L0 601Z" fill="#b3157c"></path><path d="M0 555L137 558L274 516L411 493L549 496L686 511L823 532L960 485L1097 498L1234 533L1371 527L1509 567L1646 554L1783 541L1920 531L1920 601L1783 601L1646 601L1509 601L1371 601L1234 601L1097 601L960 601L823 601L686 601L549 601L411 601L274 601L137 601L0 601Z" fill="#ea2c6d"></path></svg>